<svg width="51" height="46" viewBox="0 0 51 46" fill="none" xmlns="http://www.w3.org/2000/svg">
<rect width="50.542" height="45.9333" rx="12" fill="#659B91"/>
<path d="M9.479 36.069H7.533L7.211 37H6.182L7.939 32.107H9.08L10.837 37H9.801L9.479 36.069ZM9.213 35.285L8.506 33.241L7.799 35.285H9.213ZM12.4737 33.682C12.5997 33.5047 12.7724 33.3577 12.9917 33.241C13.2157 33.1197 13.4701 33.059 13.7547 33.059C14.0861 33.059 14.3847 33.1407 14.6507 33.304C14.9214 33.4673 15.1337 33.7007 15.2877 34.004C15.4464 34.3027 15.5257 34.6503 15.5257 35.047C15.5257 35.4437 15.4464 35.796 15.2877 36.104C15.1337 36.4073 14.9214 36.643 14.6507 36.811C14.3847 36.979 14.0861 37.063 13.7547 37.063C13.4701 37.063 13.2181 37.0047 12.9987 36.888C12.7841 36.7713 12.6091 36.6243 12.4737 36.447V38.848H11.4937V33.122H12.4737V33.682ZM14.5247 35.047C14.5247 34.8137 14.4757 34.613 14.3777 34.445C14.2844 34.2723 14.1584 34.1417 13.9997 34.053C13.8457 33.9643 13.6777 33.92 13.4957 33.92C13.3184 33.92 13.1504 33.9667 12.9917 34.06C12.8377 34.1487 12.7117 34.2793 12.6137 34.452C12.5204 34.6247 12.4737 34.8277 12.4737 35.061C12.4737 35.2943 12.5204 35.4973 12.6137 35.67C12.7117 35.8427 12.8377 35.9757 12.9917 36.069C13.1504 36.1577 13.3184 36.202 13.4957 36.202C13.6777 36.202 13.8457 36.1553 13.9997 36.062C14.1584 35.9687 14.2844 35.8357 14.3777 35.663C14.4757 35.4903 14.5247 35.285 14.5247 35.047ZM17.2179 33.682C17.3439 33.5047 17.5165 33.3577 17.7359 33.241C17.9599 33.1197 18.2142 33.059 18.4989 33.059C18.8302 33.059 19.1289 33.1407 19.3949 33.304C19.6655 33.4673 19.8779 33.7007 20.0319 34.004C20.1905 34.3027 20.2699 34.6503 20.2699 35.047C20.2699 35.4437 20.1905 35.796 20.0319 36.104C19.8779 36.4073 19.6655 36.643 19.3949 36.811C19.1289 36.979 18.8302 37.063 18.4989 37.063C18.2142 37.063 17.9622 37.0047 17.7429 36.888C17.5282 36.7713 17.3532 36.6243 17.2179 36.447V38.848H16.2379V33.122H17.2179V33.682ZM19.2689 35.047C19.2689 34.8137 19.2199 34.613 19.1219 34.445C19.0285 34.2723 18.9025 34.1417 18.7439 34.053C18.5899 33.9643 18.4219 33.92 18.2399 33.92C18.0625 33.92 17.8945 33.9667 17.7359 34.06C17.5819 34.1487 17.4559 34.2793 17.3579 34.452C17.2645 34.6247 17.2179 34.8277 17.2179 35.061C17.2179 35.2943 17.2645 35.4973 17.3579 35.67C17.4559 35.8427 17.5819 35.9757 17.7359 36.069C17.8945 36.1577 18.0625 36.202 18.2399 36.202C18.4219 36.202 18.5899 36.1553 18.7439 36.062C18.9025 35.9687 19.0285 35.8357 19.1219 35.663C19.2199 35.4903 19.2689 35.285 19.2689 35.047ZM25.646 36.069H23.7L23.378 37H22.349L24.106 32.107H25.247L27.004 37H25.968L25.646 36.069ZM25.38 35.285L24.673 33.241L23.966 35.285H25.38ZM31.3217 33.122V37H30.3347V36.51C30.2087 36.678 30.0431 36.811 29.8377 36.909C29.6371 37.0023 29.4177 37.049 29.1797 37.049C28.8764 37.049 28.6081 36.986 28.3747 36.86C28.1414 36.7293 27.9571 36.5403 27.8217 36.293C27.6911 36.041 27.6257 35.7423 27.6257 35.397V33.122H28.6057V35.257C28.6057 35.565 28.6827 35.803 28.8367 35.971C28.9907 36.1343 29.2007 36.216 29.4667 36.216C29.7374 36.216 29.9497 36.1343 30.1037 35.971C30.2577 35.803 30.3347 35.565 30.3347 35.257V33.122H31.3217ZM32.0367 35.047C32.0367 34.655 32.1137 34.3073 32.2677 34.004C32.4263 33.7007 32.641 33.4673 32.9117 33.304C33.1823 33.1407 33.4833 33.059 33.8147 33.059C34.0667 33.059 34.307 33.115 34.5357 33.227C34.7643 33.3343 34.9463 33.479 35.0817 33.661V31.82H36.0757V37H35.0817V36.426C34.9603 36.6173 34.79 36.7713 34.5707 36.888C34.3513 37.0047 34.097 37.063 33.8077 37.063C33.481 37.063 33.1823 36.979 32.9117 36.811C32.641 36.643 32.4263 36.4073 32.2677 36.104C32.1137 35.796 32.0367 35.4437 32.0367 35.047ZM35.0887 35.061C35.0887 34.823 35.042 34.62 34.9487 34.452C34.8553 34.2793 34.7293 34.1487 34.5707 34.06C34.412 33.9667 34.2417 33.92 34.0597 33.92C33.8777 33.92 33.7097 33.9643 33.5557 34.053C33.4017 34.1417 33.2757 34.2723 33.1777 34.445C33.0843 34.613 33.0377 34.8137 33.0377 35.047C33.0377 35.2803 33.0843 35.4857 33.1777 35.663C33.2757 35.8357 33.4017 35.9687 33.5557 36.062C33.7143 36.1553 33.8823 36.202 34.0597 36.202C34.2417 36.202 34.412 36.1577 34.5707 36.069C34.7293 35.9757 34.8553 35.845 34.9487 35.677C35.042 35.5043 35.0887 35.299 35.0887 35.061ZM37.5298 32.66C37.3571 32.66 37.2125 32.6063 37.0958 32.499C36.9838 32.387 36.9278 32.2493 36.9278 32.086C36.9278 31.9227 36.9838 31.7873 37.0958 31.68C37.2125 31.568 37.3571 31.512 37.5298 31.512C37.7025 31.512 37.8448 31.568 37.9568 31.68C38.0735 31.7873 38.1318 31.9227 38.1318 32.086C38.1318 32.2493 38.0735 32.387 37.9568 32.499C37.8448 32.6063 37.7025 32.66 37.5298 32.66ZM38.0128 33.122V37H37.0328V33.122H38.0128ZM40.703 37.063C40.3297 37.063 39.9937 36.9813 39.695 36.818C39.3964 36.65 39.1607 36.4143 38.988 36.111C38.82 35.8077 38.736 35.4577 38.736 35.061C38.736 34.6643 38.8224 34.3143 38.995 34.011C39.1724 33.7077 39.4127 33.4743 39.716 33.311C40.0194 33.143 40.3577 33.059 40.731 33.059C41.1044 33.059 41.4427 33.143 41.746 33.311C42.0494 33.4743 42.2874 33.7077 42.46 34.011C42.6374 34.3143 42.726 34.6643 42.726 35.061C42.726 35.4577 42.635 35.8077 42.453 36.111C42.2757 36.4143 42.033 36.65 41.725 36.818C41.4217 36.9813 41.081 37.063 40.703 37.063ZM40.703 36.209C40.8804 36.209 41.046 36.167 41.2 36.083C41.3587 35.9943 41.4847 35.8637 41.578 35.691C41.6714 35.5183 41.718 35.3083 41.718 35.061C41.718 34.6923 41.62 34.41 41.424 34.214C41.2327 34.0133 40.997 33.913 40.717 33.913C40.437 33.913 40.2014 34.0133 40.01 34.214C39.8234 34.41 39.73 34.6923 39.73 35.061C39.73 35.4297 39.821 35.7143 40.003 35.915C40.1897 36.111 40.423 36.209 40.703 36.209Z" fill="white"/>
<g clip-path="url(#clip0_5170_16649)">
<path d="M22.1056 9.6875C21.5681 9.6875 21.0527 9.90436 20.6726 10.2904C20.2926 10.6764 20.0791 11.1999 20.0791 11.7458V17.2347C20.0791 17.7806 20.2926 18.3042 20.6726 18.6902C21.0527 19.0762 21.5681 19.2931 22.1056 19.2931C22.643 19.2931 23.1584 19.0762 23.5385 18.6902C23.9185 18.3042 24.132 17.7806 24.132 17.2347V11.7458C24.132 11.1999 23.9185 10.6764 23.5385 10.2904C23.1584 9.90436 22.643 9.6875 22.1056 9.6875Z" fill="white" stroke="white" stroke-width="2" stroke-linecap="round" stroke-linejoin="round"/>
<path d="M26.8337 15.8594V17.2316C26.8337 18.5054 26.3355 19.727 25.4488 20.6277C24.5621 21.5284 23.3594 22.0344 22.1053 22.0344C20.8513 22.0344 19.6486 21.5284 18.7619 20.6277C17.8751 19.727 17.377 18.5054 17.377 17.2316V15.8594" stroke="white" stroke-width="2" stroke-linecap="round" stroke-linejoin="round"/>
<path d="M22.1055 22.0352V24.7796" stroke="white" stroke-width="2" stroke-linecap="round" stroke-linejoin="round"/>
<path d="M19.4043 24.7812H24.8082" stroke="white" stroke-width="2" stroke-linecap="round" stroke-linejoin="round"/>
</g>
<g clip-path="url(#clip1_5170_16649)">
<path d="M29.7345 9.6875C29.197 9.6875 28.6816 9.90436 28.3015 10.2904C27.9215 10.6764 27.708 11.1999 27.708 11.7458V17.2347C27.708 17.7806 27.9215 18.3042 28.3015 18.6902C28.6816 19.0762 29.197 19.2931 29.7345 19.2931C30.2719 19.2931 30.7873 19.0762 31.1674 18.6902C31.5474 18.3042 31.7609 17.7806 31.7609 17.2347V11.7458C31.7609 11.1999 31.5474 10.6764 31.1674 10.2904C30.7873 9.90436 30.2719 9.6875 29.7345 9.6875Z" fill="white" stroke="white" stroke-width="2" stroke-linecap="round" stroke-linejoin="round"/>
<path d="M34.4626 15.8594V17.2316C34.4626 18.5054 33.9645 19.727 33.0777 20.6277C32.191 21.5284 30.9883 22.0344 29.7342 22.0344C28.4802 22.0344 27.2775 21.5284 26.3908 20.6277C25.504 19.727 25.0059 18.5054 25.0059 17.2316V15.8594" stroke="white" stroke-width="2" stroke-linecap="round" stroke-linejoin="round"/>
<path d="M29.7344 22.0352V24.7796" stroke="white" stroke-width="2" stroke-linecap="round" stroke-linejoin="round"/>
<path d="M27.0332 24.7812H32.4371" stroke="white" stroke-width="2" stroke-linecap="round" stroke-linejoin="round"/>
</g>
<defs>
<clipPath id="clip0_5170_16649">
<rect width="16.2116" height="16.4667" fill="white" transform="translate(14 9)"/>
</clipPath>
<clipPath id="clip1_5170_16649">
<rect width="16.2116" height="16.4667" fill="white" transform="translate(21.6289 9)"/>
</clipPath>
</defs>
</svg>
