<svg width="18" height="20" viewBox="0 0 18 20" fill="none" xmlns="http://www.w3.org/2000/svg">
<path fill-rule="evenodd" clip-rule="evenodd" d="M16.116 1.69057C14.136 -0.217834 10.944 -0.0694336 8.99596 1.87657L1.01996 9.85337C0.707959 10.1662 0.707959 10.6726 1.01996 10.985C1.33196 11.2974 1.83996 11.2974 2.15196 10.985L10.164 2.97377C11.444 1.69417 13.524 1.54017 14.888 2.73257C16.38 4.04017 16.436 6.31777 15.056 7.69817L5.29596 17.4566C4.51596 18.237 3.24796 18.237 2.46796 17.4566C1.68796 16.6758 1.68796 15.4086 2.46796 14.6278L11.66 5.42977C11.896 5.19497 12.276 5.19817 12.508 5.42977C12.744 5.66457 12.744 6.04377 12.508 6.27857L4.13996 14.6478C3.82796 14.9602 3.82796 15.467 4.13996 15.779C4.45196 16.0918 4.95996 16.0918 5.27196 15.779L13.64 7.40977C14.552 6.50017 14.496 4.99497 13.484 4.15417C12.596 3.42137 11.276 3.55137 10.464 4.36417L1.33596 13.4966C-0.0680411 14.9022 -0.0680411 17.1822 1.33596 18.5878C2.74396 19.9934 5.02396 19.9934 6.42796 18.5878L16.188 8.82977C18.16 6.85537 18.136 3.63577 16.116 1.69057Z" fill="#B8C5D3"/>
</svg>
