<svg width="24" height="22" viewBox="0 0 24 22" fill="none" xmlns="http://www.w3.org/2000/svg">
<path fill-rule="evenodd" clip-rule="evenodd" d="M0 1C0 0.449219 0.447266 0 1 0H23C23.5527 0 24 0.449219 24 1V16C24 16.2773 23.8867 16.5312 23.7031 16.7109C23.6416 16.7734 23.5723 16.8281 23.4971 16.8711C23.3506 16.9531 23.1807 17 23 17H13.5V20H19C19.5527 20 20 20.4492 20 21C20 21.5508 19.5527 22 19 22H5C4.44727 22 4 21.5508 4 21C4 20.4492 4.44727 20 5 20H10.5V17H1C0.749023 17 0.519531 16.9062 0.344727 16.7539C0.133789 16.5703 0 16.3008 0 16V1ZM2 2H22V15H2V2ZM15.374 9.53516C16.0195 9.14453 16.0156 8.20703 15.3682 7.82031L10.5186 4.92969C10.1797 4.72656 9.79492 4.75391 9.49805 4.92969C9.20996 5.09766 9.00586 5.41016 9.00684 5.79297L9.02734 11.6055C9.03027 12.3867 9.88086 12.8633 10.5459 12.4609L15.374 9.53516Z" fill="#659B91"/>
</svg>
