<svg width="46" height="46" viewBox="0 0 46 46" fill="none" xmlns="http://www.w3.org/2000/svg">
<path d="M45.3845 21.3527C45.3932 24.6683 44.6157 27.9391 43.1153 30.8986C41.3363 34.445 38.6014 37.4279 35.217 39.5132C31.8326 41.5985 27.9323 42.7038 23.953 42.7053C20.6251 42.714 17.3422 41.9393 14.3718 40.4445L0 45.2174L4.79059 30.8986C3.29021 27.9391 2.51269 24.6683 2.52136 21.3527C2.5229 17.388 3.63231 13.5021 5.72531 10.1301C7.81831 6.75817 10.8122 4.03337 14.3718 2.26094C17.3422 0.766081 20.6251 -0.00857311 23.953 7.15642e-05H25.2136C30.469 0.288939 35.4328 2.49898 39.1546 6.20705C42.8764 9.91512 45.0946 14.8606 45.3845 20.0967V21.3527Z" fill="#659B91"/>
</svg>
