<svg width="35" height="35" viewBox="0 0 35 35" fill="none" xmlns="http://www.w3.org/2000/svg">
<path d="M17.5176 14.4922C17.3378 14.4922 17.1614 14.5653 17.0343 14.6925C16.9071 14.8196 16.834 14.996 16.834 15.1758C16.834 15.3556 16.9071 15.5319 17.0343 15.6591C17.1614 15.7862 17.3378 15.8594 17.5176 15.8594C17.6974 15.8594 17.8737 15.7862 18.0009 15.6591C18.128 15.5319 18.2012 15.3556 18.2012 15.1758C18.2012 14.996 18.128 14.8196 18.0009 14.6925C17.8737 14.5653 17.6974 14.4922 17.5176 14.4922Z" fill="#659B91"/>
<path d="M23.9899 13.5127C24.0643 13.5386 24.1402 13.551 24.2149 13.551C24.4976 13.551 24.7621 13.3742 24.8604 13.0921C25.1474 12.2682 25.293 11.4053 25.293 10.5273C25.293 6.23027 21.7971 2.73438 17.5 2.73438C13.2029 2.73438 9.70703 6.23027 9.70703 10.5273C9.70703 11.3886 9.84724 12.236 10.1237 13.0458C10.2456 13.4032 10.6343 13.5939 10.9915 13.4719C11.3488 13.3499 11.5395 12.9614 11.4176 12.6041C11.1897 11.9368 11.0742 11.238 11.0742 10.5273C11.0742 6.98414 13.9568 4.10156 17.5 4.10156C21.0432 4.10156 23.9258 6.98414 23.9258 10.5273C23.9258 11.2518 23.8059 11.9634 23.5693 12.6422C23.4451 12.9988 23.6334 13.3885 23.9899 13.5127Z" fill="#659B91"/>
<path d="M8.34627 14.3844C8.70317 14.2613 8.89273 13.8722 8.76962 13.5153C8.4391 12.5568 8.27148 11.5515 8.27148 10.5273C8.27148 5.47641 12.3807 1.36719 17.4316 1.36719C22.4826 1.36719 26.5918 5.47641 26.5918 10.5273C26.5918 11.5515 26.4242 12.5568 26.0936 13.5153C25.9705 13.8722 26.16 14.2613 26.5169 14.3844C26.5908 14.4099 26.6659 14.4219 26.7399 14.4219C27.0234 14.4219 27.2884 14.244 27.3861 13.961C27.7662 12.8588 27.959 11.7036 27.959 10.5273C27.959 4.72254 23.2364 0 17.4316 0C11.6268 0 6.9043 4.72254 6.9043 10.5273C6.9043 11.7036 7.09707 12.8588 7.47715 13.961C7.60026 14.3179 7.9893 14.5074 8.34627 14.3844Z" fill="#659B91"/>
<path d="M31.582 17.9102H20.9535C21.9402 16.9864 22.5586 15.6738 22.5586 14.2188V10.5273C22.5586 7.73801 20.2893 5.46875 17.5 5.46875C14.7107 5.46875 12.4414 7.73801 12.4414 10.5273V14.2188C12.4414 15.6738 13.0598 16.9864 14.0465 17.9102H10.5273C10.1498 17.9102 9.84375 18.2162 9.84375 18.5938C9.84375 18.9713 10.1498 19.2773 10.5273 19.2773H16.8164V21.1914H14.8899C14.5124 21.1914 14.2063 21.4975 14.2063 21.875C14.2063 22.2525 14.5124 22.5586 14.8899 22.5586H20.1101C20.4876 22.5586 20.7937 22.2525 20.7937 21.875C20.7937 21.4975 20.4876 21.1914 20.1101 21.1914H18.1836V19.2773H31.582C32.7128 19.2773 33.6328 20.1973 33.6328 21.3281V31.582C33.6328 32.7128 32.7128 33.6328 31.582 33.6328H3.41797C2.28717 33.6328 1.36719 32.7128 1.36719 31.582V21.3281C1.36719 20.1973 2.28717 19.2773 3.41797 19.2773H4.375C4.75255 19.2773 5.05859 18.9713 5.05859 18.5938C5.05859 18.2162 4.75255 17.9102 4.375 17.9102H3.41797C1.5333 17.9102 0 19.4435 0 21.3281V31.582C0 33.4667 1.5333 35 3.41797 35H31.582C33.4667 35 35 33.4667 35 31.582V21.3281C35 19.4435 33.4667 17.9102 31.582 17.9102ZM17.5 6.83594C19.5355 6.83594 21.1914 8.49188 21.1914 10.5273V11.8338H13.8086V10.5273C13.8086 8.49188 15.4645 6.83594 17.5 6.83594ZM13.8086 14.2188V13.2009H21.1914V14.2188C21.1914 16.2542 19.5355 17.9102 17.5 17.9102C15.4645 17.9102 13.8086 16.2542 13.8086 14.2188Z" fill="#659B91"/>
<path d="M8.125 24.5C7.74745 24.5 7.44141 24.806 7.44141 25.1836V30.6478C7.44141 30.9808 7.68135 31.2653 8.00961 31.3215C8.05821 31.3299 8.09561 31.3363 8.70476 31.3363C8.99747 31.3363 9.42233 31.3348 10.0438 31.3314C10.4213 31.3292 10.7257 31.0215 10.7236 30.6439C10.7214 30.2677 10.4158 29.9642 10.04 29.9642C10.0387 29.9642 10.0374 29.9642 10.0361 29.9642C9.61462 29.9666 9.16318 29.9683 8.80853 29.9687V25.1836C8.8086 24.806 8.50255 24.5 8.125 24.5Z" fill="#659B91"/>
<path d="M14.2773 30.6523V25.1836C14.2773 24.806 13.9713 24.5 13.5938 24.5C13.2162 24.5 12.9102 24.806 12.9102 25.1836V30.6523C12.9102 31.0299 13.2162 31.3359 13.5938 31.3359C13.9713 31.3359 14.2773 31.0299 14.2773 30.6523Z" fill="#659B91"/>
<path d="M26.8751 25.8906C27.2526 25.8906 27.5587 25.5846 27.5587 25.207C27.5587 24.8295 27.2526 24.5234 26.8751 24.5234H24.5918C24.2142 24.5234 23.9082 24.8295 23.9082 25.207V30.6259C23.9082 31.0034 24.2142 31.3095 24.5918 31.3095H26.8751C27.2526 31.3095 27.5587 31.0034 27.5587 30.6259C27.5587 30.2483 27.2526 29.9423 26.8751 29.9423H25.2754V28.6H26.7067C27.0842 28.6 27.3903 28.294 27.3903 27.9165C27.3903 27.5389 27.0842 27.2329 26.7067 27.2329H25.2754V25.8906H26.8751Z" fill="#659B91"/>
<path d="M19.1346 31.3322H19.1401C19.4834 31.3299 19.7882 31.11 19.9003 30.7804L21.6859 25.4054C21.8049 25.0472 21.611 24.6602 21.2527 24.5412C20.8945 24.4221 20.5075 24.6161 20.3884 24.9744L19.1231 28.7834L17.7945 24.9557C17.6706 24.599 17.2812 24.4103 16.9245 24.5341C16.5678 24.6579 16.379 25.0474 16.5028 25.4041L18.3742 30.7954C18.4885 31.1171 18.7936 31.3322 19.1346 31.3322Z" fill="#659B91"/>
<path d="M7.45117 19.2773C7.63096 19.2773 7.80732 19.2042 7.93447 19.0771C8.06162 18.9499 8.13477 18.7735 8.13477 18.5938C8.13477 18.414 8.06162 18.2376 7.93447 18.1104C7.80732 17.9833 7.63096 17.9102 7.45117 17.9102C7.27139 17.9102 7.09502 17.9833 6.96787 18.1104C6.84072 18.2376 6.76758 18.414 6.76758 18.5938C6.76758 18.7735 6.84072 18.9499 6.96787 19.0771C7.09502 19.2042 7.27139 19.2773 7.45117 19.2773Z" fill="#659B91"/>
</svg>
