<svg width="58" height="52" viewBox="0 0 58 52" fill="none" xmlns="http://www.w3.org/2000/svg">
<path d="M57.2174 26C57.2174 40.3594 44.4088 52 28.6087 52C12.8085 52 0 40.3594 0 26C0 11.6406 12.8085 0 28.6087 0C44.4088 0 57.2174 11.6406 57.2174 26Z" fill="#7B877C"/>
<rect x="19" y="16" width="20.9797" height="14.7333" rx="1" fill="white"/>
<rect x="20.9072" y="17.7344" width="17.1652" height="11.2667" fill="#7B877C"/>
<path d="M32.5434 22.416C33.2084 22.7994 33.212 23.7577 32.55 24.1452L28.5761 26.4717C27.9109 26.8611 27.0734 26.3827 27.0705 25.6117L27.053 20.9838C27.05 20.2128 27.8839 19.7292 28.552 20.1145L32.5434 22.416Z" fill="white"/>
<rect x="28.5356" y="30.7266" width="1.90725" height="2.6" fill="white"/>
<rect x="21.8604" y="33.3242" width="15.258" height="1.73333" rx="0.866667" fill="white"/>
</svg>
