<svg width="20" height="19" viewBox="0 0 20 19" fill="none" xmlns="http://www.w3.org/2000/svg">
<path fill-rule="evenodd" clip-rule="evenodd" d="M12.5734 16.7519L8.01584 12.3304L17.2889 3.33706L12.5734 16.7519ZM16.4232 2.49789L7.15012 11.4912L2.59257 7.06977L16.4232 2.49789ZM19.6224 0.233727C19.4024 0.0199773 19.0767 -0.0512727 18.782 0.0437273L0.824817 5.98123C0.558286 6.07227 0.357061 6.28602 0.293388 6.55123C0.229715 6.82039 0.311755 7.09748 0.511347 7.29144L12.3456 18.7706C12.5003 18.921 12.7089 19.0002 12.9228 19.0002C12.9844 19.0002 13.0464 18.9923 13.1077 18.9804C13.3824 18.9171 13.6044 18.7231 13.6954 18.4658L19.8179 1.04914C19.9183 0.764144 19.8424 0.447477 19.6224 0.233727Z" fill="#659B91"/>
</svg>
